# Wavefront OBJ file made by Mineways version 9.17, http://mineways.com
# World: New World
# Terrain file name: C:\Users\kevin\Downloads\minewaysV1000\mineways\terrainExt.png
# Color scheme: Standard
# Thu Jun 16 20:48:48 2022

# Selection location min to max: 13, -63, -46 to 17, 319, -42
#   Non-empty selection location min to max: 13, -60, -46 to 17, -54, -42

# Set render type: Wavefront OBJ relative indices
# Units for the model vertex data itself: meters

# 139 vertices, 337 faces (674 triangles), 60 blocks, 0 billboards/bits
# block dimensions: X=5 by Y=7 (height) by Z=5 blocks
# Elevation shading: no
# Lighting: no
# Transparent water: no
# Map grid: no
# File type: Export all textures to three large images
# Texture output RGB: YES
# Texture output A: YES
# Texture output RGBA: YES
# OBJ relative coordinates
# Make groups objects: no
# Export separate objects: YES
# Individual blocks: no
#   Material per family: YES
#   Split by block type: YES
# G3D full material: YES
# Make Z the up direction instead of Y: no
# Create composite overlay faces: no
# Center model: YES
# Export lesser blocks: YES
# Fatten lesser blocks: no
# Create block faces at the borders: YES
# Make tree leaves solid: no
# Use biomes: no
# Rotate model 0.000000 degrees
# Scale model by making each block 1000 mm high
# Data operation options:
#   Fill air bubbles: no; Seal off entrances: no; Fill in isolated tunnels in base of model: no
#   Connect parts sharing an edge: no; Connect corner tips: no; Weld all shared edges: no
#   Delete floating objects: trees and parts smaller than 16 blocks: no
#   Hollow out bottom of model, making the walls 1000 mm thick: no; Superhollow: no
# Melt snow blocks: no
#   Debug: show separate parts as colors: no
#   Debug: show weld blocks in bright colors: no

# Full world path: C:\Users\kevin\AppData\Roaming\.minecraft\saves\New World
# Full terrainExt.png path: C:\Users\kevin\Downloads\minewaysV1000\mineways\terrainExt.png
# Full current path: C:\Users\kevin\Downloads\minewaysV1000\mineways

mtllib Mineways2Skfb.mtl

o New_World__13_-63_-46_to_17_319_-42
# oak_leaves
# oak_log
# oak_log_top

g Oak_Log
usemtl Oak_Log

g Oak_Leaves
usemtl Oak_Leaves
vn -1 0 0
vn 0 -1 0
vn 0 0 -1
vn 1 0 0
vn 0 1 0
vn 0 0 1
vn -0.707107 0 -0.707107
vn -0.707107 0 0.707107
vn 0.707107 0 -0.707107
vn 0.707107 0 0.707107
vn -0.707107 -0.707107 0
vn 0 -0.707107 -0.707107
vn 0.707107 -0.707107 0
vn 0 -0.707107 0.707107
vn -0.707107 0.707107 0
vn 0 0.707107 -0.707107
vn 0.707107 0.707107 0
vn 0 0.707107 0.707107
vn -0.92388 0 -0.382683
vn -0.92388 0 0.382683
vn 0.92388 0 -0.382683
vn 0.92388 0 0.382683
vn -0.382683 0 -0.92388
vn -0.382683 0 0.92388
vn 0.382683 0 -0.92388
vn 0.382683 0 0.92388
vn -0.397273 0.9177 0
vn 0.397273 -0.9177 0
vn 0.397273 0.9177 0
vn -0.397273 -0.9177 0
vn 0 0.9177 -0.397273
vn 0 -0.9177 0.397273
vn 0 0.9177 0.397273
vn 0 -0.9177 -0.397273
vn -0.440932 0.897541 0
vn 0.440932 -0.897541 0
vn 0.440932 0.897541 0
vn -0.440932 -0.897541 0
vn 0 0.897541 -0.440932
vn 0 -0.897541 0.440932
vn 0 0.897541 0.440932
vn 0 -0.897541 -0.440932
vt 0.915039062 0.983398438
vt 0.930664062 0.983398438
vt 0.930664062 0.999023438
vt 0.915039062 0.999023438
vt 0.352539062 0.983398438
vt 0.368164062 0.983398438
vt 0.368164062 0.999023438
vt 0.352539062 0.999023438
vt 0.370117188 0.983398438
vt 0.385742188 0.983398438
vt 0.385742188 0.999023438
vt 0.370117188 0.999023438
v -0.285714 0.857143 -0.285714
v -0.285714 0.857143 -0.142857
v -0.285714 1 -0.142857
v -0.285714 1 -0.285714
v -0.142857 0.857143 -0.142857
v -0.142857 0.857143 -0.285714
v -0.142857 1 -0.285714
v -0.142857 1 -0.142857
v -0.285714 0.857143 0
v -0.285714 1 0
v -0.142857 0.857143 0
v -0.142857 1 0
v -0.285714 1.14286 0
v -0.285714 1.14286 -0.142857
v -0.142857 1.14286 -0.142857
v -0.142857 1.14286 0
v -0.285714 0.857143 0.142857
v -0.285714 1 0.142857
v -0.142857 0.857143 0.142857
v -0.142857 1 0.142857
v -0.285714 1.14286 0.142857
v -0.142857 1.14286 0.142857
v -0.285714 0.857143 0.285714
v -0.285714 1 0.285714
v -0.142857 0.857143 0.285714
v -0.142857 1 0.285714
v -0.285714 1.14286 0.285714
v -0.142857 1.14286 0.285714
v 0 0.857143 -0.142857
v 0 0.857143 -0.285714
v 0 1 -0.285714
v 0 1 -0.142857
v -0.142857 1.14286 -0.285714
v 0 1.14286 -0.285714
v 0 1.14286 -0.142857
v 0 0.857143 0
v 0 1 0
v 0 1.14286 0
v -0.142857 1.28571 0
v -0.142857 1.28571 -0.142857
v 0 1.28571 -0.142857
v 0 1.28571 0
v 0 0.857143 0.142857
v 0 1 0.142857
v 0 1.14286 0.142857
v -0.142857 1.28571 0.142857
v 0 1.28571 0.142857
v -0.142857 1.42857 0.142857
v -0.142857 1.42857 0
v 0 1.42857 0
v 0 1.42857 0.142857
v 0 0.857143 0.285714
v 0 1 0.285714
v 0 1.14286 0.285714
v -0.142857 0.857143 0.428571
v -0.142857 1 0.428571
v 0 0.857143 0.428571
v 0 1 0.428571
v -0.142857 1.14286 0.428571
v 0 1.14286 0.428571
v 0.142857 0.857143 -0.142857
v 0.142857 0.857143 -0.285714
v 0.142857 1 -0.285714
v 0.142857 1 -0.142857
v 0.142857 1.14286 -0.285714
v 0.142857 1.14286 -0.142857
v 0.142857 0.857143 0
v 0.142857 1 0
v 0.142857 1.14286 0
v 0.142857 1.28571 -0.142857
v 0.142857 1.28571 0
v 0 1.42857 -0.142857
v 0.142857 1.42857 -0.142857
v 0.142857 1.42857 0
v 0 0.428571 0
v 0 0.428571 0.142857
v 0 0.571429 0.142857
v 0 0.571429 0
v 0.142857 0.428571 0.142857
v 0.142857 0.428571 0
v 0.142857 0.571429 0
v 0.142857 0.571429 0.142857
v 0 0.714286 0.142857
v 0 0.714286 0
v 0.142857 0.714286 0
v 0.142857 0.714286 0.142857
v 0.142857 0.857143 0.142857
v 0.142857 1 0.142857
v 0.142857 1.14286 0.142857
v 0.142857 1.28571 0.142857
v 0.142857 1.42857 0.142857
v 0.142857 0.857143 0.285714
v 0.142857 1 0.285714
v 0.142857 1.14286 0.285714
v 0 1.28571 0.285714
v 0.142857 1.28571 0.285714
v 0 1.42857 0.285714
v 0.142857 1.42857 0.285714
v 0.142857 0.857143 0.428571
v 0.142857 1 0.428571
v 0.142857 1.14286 0.428571
v 0.285714 0.857143 -0.142857
v 0.285714 0.857143 -0.285714
v 0.285714 1 -0.285714
v 0.285714 1 -0.142857
v 0.285714 1.14286 -0.285714
v 0.285714 1.14286 -0.142857
v 0.285714 0.857143 0
v 0.285714 1 0
v 0.285714 1.14286 0
v 0.285714 0.857143 0.142857
v 0.285714 1 0.142857
v 0.285714 1.14286 0.142857
v 0.285714 1.28571 0
v 0.285714 1.28571 0.142857
v 0.285714 1.42857 0
v 0.285714 1.42857 0.142857
v 0.285714 0.857143 0.285714
v 0.285714 1 0.285714
v 0.285714 1.14286 0.285714
v 0.285714 1.28571 0.285714
v 0.285714 0.857143 0.428571
v 0.285714 1 0.428571
v 0.285714 1.14286 0.428571
v 0.428571 0.857143 -0.142857
v 0.428571 0.857143 -0.285714
v 0.428571 1 -0.285714
v 0.428571 1 -0.142857
v 0.428571 1.14286 -0.285714
v 0.428571 1.14286 -0.142857
v 0.428571 0.857143 0
v 0.428571 1 0
v 0.428571 1.14286 0
v 0.428571 0.857143 0.142857
v 0.428571 1 0.142857
v 0.428571 1.14286 0.142857
v 0.428571 0.857143 0.285714
v 0.428571 1 0.285714
v 0.428571 1.14286 0.285714
f 76/6/1 77/7/1 78/8/1 75/5/1
f 76/9/2 75/12/2 80/11/2 79/10/2
f 75/6/3 78/7/3 81/8/3 80/5/3
f 79/5/4 80/6/4 81/7/4 82/8/4
f 76/5/6 79/6/6 82/7/6 77/8/6
f 77/6/1 83/7/1 84/8/1 78/5/1
f 78/6/3 84/7/3 85/8/3 81/5/3
f 82/5/4 81/6/4 85/7/4 86/8/4
f 77/5/6 82/6/6 86/7/6 83/8/6
f 83/6/1 43/7/1 36/8/1 84/5/1
f 84/6/3 36/7/3 67/8/3 85/5/3
f 86/5/4 85/6/4 67/7/4 87/8/4
f 83/5/6 86/6/6 87/7/6 43/8/6
f 43/6/1 44/7/1 37/8/1 36/5/1
f 36/6/3 37/7/3 68/8/3 67/5/3
f 87/5/4 67/6/4 68/7/4 88/8/4
f 43/5/6 87/6/6 88/7/6 44/8/6
f 44/6/1 45/7/1 38/8/1 37/5/1
f 37/6/3 38/7/3 69/8/3 68/5/3
f 88/5/4 68/6/4 69/7/4 89/8/4
f 44/5/6 88/6/6 89/7/6 45/8/6
f 45/6/1 47/7/1 42/8/1 38/5/1
f 38/6/3 42/7/3 71/8/3 69/5/3
f 89/5/4 69/6/4 71/7/4 90/8/4
f 47/9/5 90/10/5 71/11/5 42/12/5
f 45/5/6 89/6/6 90/7/6 47/8/6
f 2/2/1 3/3/1 4/4/1 1/1/1
f 2/1/2 1/4/2 6/3/2 5/2/2
f 1/2/3 4/3/3 7/4/3 6/1/3
f 5/1/4 6/2/4 7/3/4 8/4/4
f 3/1/5 8/2/5 7/3/5 4/4/5
f 2/1/6 5/2/6 8/3/6 3/4/6
f 9/2/1 10/3/1 3/4/1 2/1/1
f 9/1/2 2/4/2 5/3/2 11/2/2
f 2/2/3 3/3/3 8/4/3 5/1/3
f 11/1/4 5/2/4 8/3/4 12/4/4
f 10/1/5 12/2/5 8/3/5 3/4/5
f 9/1/6 11/2/6 12/3/6 10/4/6
f 10/2/1 13/3/1 14/4/1 3/1/1
f 10/1/2 3/4/2 8/3/2 12/2/2
f 3/2/3 14/3/3 15/4/3 8/1/3
f 12/1/4 8/2/4 15/3/4 16/4/4
f 13/1/5 16/2/5 15/3/5 14/4/5
f 10/1/6 12/2/6 16/3/6 13/4/6
f 17/2/1 18/3/1 10/4/1 9/1/1
f 17/1/2 9/4/2 11/3/2 19/2/2
f 9/2/3 10/3/3 12/4/3 11/1/3
f 19/1/4 11/2/4 12/3/4 20/4/4
f 18/1/5 20/2/5 12/3/5 10/4/5
f 17/1/6 19/2/6 20/3/6 18/4/6
f 18/2/1 21/3/1 13/4/1 10/1/1
f 18/1/2 10/4/2 12/3/2 20/2/2
f 10/2/3 13/3/3 16/4/3 12/1/3
f 20/1/4 12/2/4 16/3/4 22/4/4
f 21/1/5 22/2/5 16/3/5 13/4/5
f 18/1/6 20/2/6 22/3/6 21/4/6
f 23/2/1 24/3/1 18/4/1 17/1/1
f 23/1/2 17/4/2 19/3/2 25/2/2
f 17/2/3 18/3/3 20/4/3 19/1/3
f 25/1/4 19/2/4 20/3/4 26/4/4
f 24/1/5 26/2/5 20/3/5 18/4/5
f 23/1/6 25/2/6 26/3/6 24/4/6
f 24/2/1 27/3/1 21/4/1 18/1/1
f 24/1/2 18/4/2 20/3/2 26/2/2
f 18/2/3 21/3/3 22/4/3 20/1/3
f 26/1/4 20/2/4 22/3/4 28/4/4
f 27/1/5 28/2/5 22/3/5 21/4/5
f 24/1/6 26/2/6 28/3/6 27/4/6
f 5/2/1 8/3/1 7/4/1 6/1/1
f 5/1/2 6/4/2 30/3/2 29/2/2
f 6/2/3 7/3/3 31/4/3 30/1/3
f 29/1/4 30/2/4 31/3/4 32/4/4
f 8/1/5 32/2/5 31/3/5 7/4/5
f 5/1/6 29/2/6 32/3/6 8/4/6
f 8/2/1 15/3/1 33/4/1 7/1/1
f 8/1/2 7/4/2 31/3/2 32/2/2
f 7/2/3 33/3/3 34/4/3 31/1/3
f 32/1/4 31/2/4 34/3/4 35/4/4
f 15/1/5 35/2/5 34/3/5 33/4/5
f 8/1/6 32/2/6 35/3/6 15/4/6
f 11/2/1 12/3/1 8/4/1 5/1/1
f 11/1/2 5/4/2 29/3/2 36/2/2
f 5/2/3 8/3/3 32/4/3 29/1/3
f 36/1/4 29/2/4 32/3/4 37/4/4
f 12/1/5 37/2/5 32/3/5 8/4/5
f 11/1/6 36/2/6 37/3/6 12/4/6
f 12/2/1 16/3/1 15/4/1 8/1/1
f 12/1/2 8/4/2 32/3/2 37/2/2
f 8/2/3 15/3/3 35/4/3 32/1/3
f 37/1/4 32/2/4 35/3/4 38/4/4
f 16/1/5 38/2/5 35/3/5 15/4/5
f 12/1/6 37/2/6 38/3/6 16/4/6
f 16/2/1 39/3/1 40/4/1 15/1/1
f 16/1/2 15/4/2 35/3/2 38/2/2
f 15/2/3 40/3/3 41/4/3 35/1/3
f 38/1/4 35/2/4 41/3/4 42/4/4
f 39/1/5 42/2/5 41/3/5 40/4/5
f 16/1/6 38/2/6 42/3/6 39/4/6
f 19/2/1 20/3/1 12/4/1 11/1/1
f 19/1/2 11/4/2 36/3/2 43/2/2
f 11/2/3 12/3/3 37/4/3 36/1/3
f 20/1/5 44/2/5 37/3/5 12/4/5
f 19/1/6 43/2/6 44/3/6 20/4/6
f 20/2/1 22/3/1 16/4/1 12/1/1
f 20/1/2 12/4/2 37/3/2 44/2/2
f 12/2/3 16/3/3 38/4/3 37/1/3
f 22/1/5 45/2/5 38/3/5 16/4/5
f 20/1/6 44/2/6 45/3/6 22/4/6
f 22/2/1 46/3/1 39/4/1 16/1/1
f 22/1/2 16/4/2 38/3/2 45/2/2
f 16/2/3 39/3/3 42/4/3 38/1/3
f 46/1/5 47/2/5 42/3/5 39/4/5
f 22/1/6 45/2/6 47/3/6 46/4/6
f 46/2/1 48/3/1 49/4/1 39/1/1
f 46/1/2 39/4/2 42/3/2 47/2/2
f 39/2/3 49/3/3 50/4/3 42/1/3
f 47/1/4 42/2/4 50/3/4 51/4/4
f 48/1/5 51/2/5 50/3/5 49/4/5
f 46/1/6 47/2/6 51/3/6 48/4/6
f 25/2/1 26/3/1 20/4/1 19/1/1
f 25/1/2 19/4/2 43/3/2 52/2/2
f 19/2/3 20/3/3 44/4/3 43/1/3
f 52/1/4 43/2/4 44/3/4 53/4/4
f 26/1/5 53/2/5 44/3/5 20/4/5
f 25/1/6 52/2/6 53/3/6 26/4/6
f 26/2/1 28/3/1 22/4/1 20/1/1
f 26/1/2 20/4/2 44/3/2 53/2/2
f 20/2/3 22/3/3 45/4/3 44/1/3
f 53/1/4 44/2/4 45/3/4 54/4/4
f 28/1/5 54/2/5 45/3/5 22/4/5
f 26/1/6 53/2/6 54/3/6 28/4/6
f 55/2/1 56/3/1 26/4/1 25/1/1
f 55/1/2 25/4/2 52/3/2 57/2/2
f 25/2/3 26/3/3 53/4/3 52/1/3
f 57/1/4 52/2/4 53/3/4 58/4/4
f 56/1/5 58/2/5 53/3/5 26/4/5
f 55/1/6 57/2/6 58/3/6 56/4/6
f 56/2/1 59/3/1 28/4/1 26/1/1
f 56/1/2 26/4/2 53/3/2 58/2/2
f 26/2/3 28/3/3 54/4/3 53/1/3
f 58/1/4 53/2/4 54/3/4 60/4/4
f 59/1/5 60/2/5 54/3/5 28/4/5
f 56/1/6 58/2/6 60/3/6 59/4/6
f 29/2/1 32/3/1 31/4/1 30/1/1
f 29/1/2 30/4/2 62/3/2 61/2/2
f 30/2/3 31/3/3 63/4/3 62/1/3
f 61/1/4 62/2/4 63/3/4 64/4/4
f 32/1/5 64/2/5 63/3/5 31/4/5
f 29/1/6 61/2/6 64/3/6 32/4/6
f 32/2/1 35/3/1 34/4/1 31/1/1
f 32/1/2 31/4/2 63/3/2 64/2/2
f 31/2/3 34/3/3 65/4/3 63/1/3
f 64/1/4 63/2/4 65/3/4 66/4/4
f 35/1/5 66/2/5 65/3/5 34/4/5
f 32/1/6 64/2/6 66/3/6 35/4/6
f 36/2/1 37/3/1 32/4/1 29/1/1
f 36/1/2 29/4/2 61/3/2 67/2/2
f 29/2/3 32/3/3 64/4/3 61/1/3
f 67/1/4 61/2/4 64/3/4 68/4/4
f 37/1/5 68/2/5 64/3/5 32/4/5
f 37/2/1 38/3/1 35/4/1 32/1/1
f 37/1/2 32/4/2 64/3/2 68/2/2
f 32/2/3 35/3/3 66/4/3 64/1/3
f 68/1/4 64/2/4 66/3/4 69/4/4
f 38/1/5 69/2/5 66/3/5 35/4/5
f 38/2/1 42/3/1 41/4/1 35/1/1
f 38/1/2 35/4/2 66/3/2 69/2/2
f 35/2/3 41/3/3 70/4/3 66/1/3
f 69/1/4 66/2/4 70/3/4 71/4/4
f 42/1/5 71/2/5 70/3/5 41/4/5
f 42/2/1 50/3/1 72/4/1 41/1/1
f 42/1/2 41/4/2 70/3/2 71/2/2
f 41/2/3 72/3/3 73/4/3 70/1/3
f 71/1/4 70/2/4 73/3/4 74/4/4
f 50/1/5 74/2/5 73/3/5 72/4/5
f 42/1/6 71/2/6 74/3/6 50/4/6
f 47/2/1 51/3/1 50/4/1 42/1/1
f 42/2/3 50/3/3 74/4/3 71/1/3
f 90/1/4 71/2/4 74/3/4 91/4/4
f 51/1/5 91/2/5 74/3/5 50/4/5
f 47/1/6 90/2/6 91/3/6 51/4/6
f 52/2/1 53/3/1 44/4/1 43/1/1
f 52/1/2 43/4/2 87/3/2 92/2/2
f 92/1/4 87/2/4 88/3/4 93/4/4
f 53/1/5 93/2/5 88/3/5 44/4/5
f 52/1/6 92/2/6 93/3/6 53/4/6
f 53/2/1 54/3/1 45/4/1 44/1/1
f 53/1/2 44/4/2 88/3/2 93/2/2
f 93/1/4 88/2/4 89/3/4 94/4/4
f 54/1/5 94/2/5 89/3/5 45/4/5
f 53/1/6 93/2/6 94/3/6 54/4/6
f 54/2/1 95/3/1 47/4/1 45/1/1
f 54/1/2 45/4/2 89/3/2 94/2/2
f 94/1/4 89/2/4 90/3/4 96/4/4
f 95/1/5 96/2/5 90/3/5 47/4/5
f 54/1/6 94/2/6 96/3/6 95/4/6
f 95/2/1 97/3/1 51/4/1 47/1/1
f 95/1/2 47/4/2 90/3/2 96/2/2
f 47/2/3 51/3/3 91/4/3 90/1/3
f 96/1/4 90/2/4 91/3/4 98/4/4
f 97/1/5 98/2/5 91/3/5 51/4/5
f 95/1/6 96/2/6 98/3/6 97/4/6
f 57/2/1 58/3/1 53/4/1 52/1/1
f 57/1/2 52/4/2 92/3/2 99/2/2
f 52/2/3 53/3/3 93/4/3 92/1/3
f 99/1/4 92/2/4 93/3/4 100/4/4
f 58/1/5 100/2/5 93/3/5 53/4/5
f 57/1/6 99/2/6 100/3/6 58/4/6
f 58/2/1 60/3/1 54/4/1 53/1/1
f 58/1/2 53/4/2 93/3/2 100/2/2
f 53/2/3 54/3/3 94/4/3 93/1/3
f 100/1/4 93/2/4 94/3/4 101/4/4
f 60/1/5 101/2/5 94/3/5 54/4/5
f 58/1/6 100/2/6 101/3/6 60/4/6
f 61/2/1 64/3/1 63/4/1 62/1/1
f 61/1/2 62/4/2 103/3/2 102/2/2
f 62/2/3 63/3/3 104/4/3 103/1/3
f 102/1/4 103/2/4 104/3/4 105/4/4
f 64/1/5 105/2/5 104/3/5 63/4/5
f 61/1/6 102/2/6 105/3/6 64/4/6
f 64/2/1 66/3/1 65/4/1 63/1/1
f 64/1/2 63/4/2 104/3/2 105/2/2
f 63/2/3 65/3/3 106/4/3 104/1/3
f 105/1/4 104/2/4 106/3/4 107/4/4
f 66/1/5 107/2/5 106/3/5 65/4/5
f 64/1/6 105/2/6 107/3/6 66/4/6
f 67/2/1 68/3/1 64/4/1 61/1/1
f 67/1/2 61/4/2 102/3/2 108/2/2
f 61/2/3 64/3/3 105/4/3 102/1/3
f 108/1/4 102/2/4 105/3/4 109/4/4
f 68/1/5 109/2/5 105/3/5 64/4/5
f 67/1/6 108/2/6 109/3/6 68/4/6
f 68/2/1 69/3/1 66/4/1 64/1/1
f 68/1/2 64/4/2 105/3/2 109/2/2
f 64/2/3 66/3/3 107/4/3 105/1/3
f 109/1/4 105/2/4 107/3/4 110/4/4
f 69/1/5 110/2/5 107/3/5 66/4/5
f 68/1/6 109/2/6 110/3/6 69/4/6
f 87/1/2 67/4/2 108/3/2 111/2/2
f 67/2/3 68/3/3 109/4/3 108/1/3
f 111/1/4 108/2/4 109/3/4 112/4/4
f 88/1/5 112/2/5 109/3/5 68/4/5
f 87/1/6 111/2/6 112/3/6 88/4/6
f 88/1/2 68/4/2 109/3/2 112/2/2
f 68/2/3 69/3/3 110/4/3 109/1/3
f 112/1/4 109/2/4 110/3/4 113/4/4
f 89/1/5 113/2/5 110/3/5 69/4/5
f 88/1/6 112/2/6 113/3/6 89/4/6
f 89/1/2 69/4/2 110/3/2 113/2/2
f 69/2/3 71/3/3 114/4/3 110/1/3
f 113/1/4 110/2/4 114/3/4 115/4/4
f 90/1/5 115/2/5 114/3/5 71/4/5
f 89/1/6 113/2/6 115/3/6 90/4/6
f 90/2/1 91/3/1 74/4/1 71/1/1
f 90/1/2 71/4/2 114/3/2 115/2/2
f 71/2/3 74/3/3 116/4/3 114/1/3
f 115/1/4 114/2/4 116/3/4 117/4/4
f 91/1/5 117/2/5 116/3/5 74/4/5
f 90/1/6 115/2/6 117/3/6 91/4/6
f 92/2/1 93/3/1 88/4/1 87/1/1
f 92/1/2 87/4/2 111/3/2 118/2/2
f 87/2/3 88/3/3 112/4/3 111/1/3
f 118/1/4 111/2/4 112/3/4 119/4/4
f 93/1/5 119/2/5 112/3/5 88/4/5
f 92/1/6 118/2/6 119/3/6 93/4/6
f 93/2/1 94/3/1 89/4/1 88/1/1
f 93/1/2 88/4/2 112/3/2 119/2/2
f 88/2/3 89/3/3 113/4/3 112/1/3
f 119/1/4 112/2/4 113/3/4 120/4/4
f 94/1/5 120/2/5 113/3/5 89/4/5
f 93/1/6 119/2/6 120/3/6 94/4/6
f 94/2/1 96/3/1 90/4/1 89/1/1
f 94/1/2 89/4/2 113/3/2 120/2/2
f 89/2/3 90/3/3 115/4/3 113/1/3
f 120/1/4 113/2/4 115/3/4 121/4/4
f 96/1/5 121/2/5 115/3/5 90/4/5
f 94/1/6 120/2/6 121/3/6 96/4/6
f 99/2/1 100/3/1 93/4/1 92/1/1
f 99/1/2 92/4/2 118/3/2 122/2/2
f 92/2/3 93/3/3 119/4/3 118/1/3
f 122/1/4 118/2/4 119/3/4 123/4/4
f 100/1/5 123/2/5 119/3/5 93/4/5
f 99/1/6 122/2/6 123/3/6 100/4/6
f 100/2/1 101/3/1 94/4/1 93/1/1
f 100/1/2 93/4/2 119/3/2 123/2/2
f 93/2/3 94/3/3 120/4/3 119/1/3
f 123/1/4 119/2/4 120/3/4 124/4/4
f 101/1/5 124/2/5 120/3/5 94/4/5
f 100/1/6 123/2/6 124/3/6 101/4/6
f 102/2/1 105/3/1 104/4/1 103/1/1
f 102/1/2 103/4/2 126/3/2 125/2/2
f 103/2/3 104/3/3 127/4/3 126/1/3
f 125/1/4 126/2/4 127/3/4 128/4/4
f 105/1/5 128/2/5 127/3/5 104/4/5
f 102/1/6 125/2/6 128/3/6 105/4/6
f 105/2/1 107/3/1 106/4/1 104/1/1
f 105/1/2 104/4/2 127/3/2 128/2/2
f 104/2/3 106/3/3 129/4/3 127/1/3
f 128/1/4 127/2/4 129/3/4 130/4/4
f 107/1/5 130/2/5 129/3/5 106/4/5
f 105/1/6 128/2/6 130/3/6 107/4/6
f 108/2/1 109/3/1 105/4/1 102/1/1
f 108/1/2 102/4/2 125/3/2 131/2/2
f 102/2/3 105/3/3 128/4/3 125/1/3
f 131/1/4 125/2/4 128/3/4 132/4/4
f 109/1/5 132/2/5 128/3/5 105/4/5
f 108/1/6 131/2/6 132/3/6 109/4/6
f 109/2/1 110/3/1 107/4/1 105/1/1
f 109/1/2 105/4/2 128/3/2 132/2/2
f 105/2/3 107/3/3 130/4/3 128/1/3
f 132/1/4 128/2/4 130/3/4 133/4/4
f 110/1/5 133/2/5 130/3/5 107/4/5
f 109/1/6 132/2/6 133/3/6 110/4/6
f 111/2/1 112/3/1 109/4/1 108/1/1
f 111/1/2 108/4/2 131/3/2 134/2/2
f 108/2/3 109/3/3 132/4/3 131/1/3
f 134/1/4 131/2/4 132/3/4 135/4/4
f 112/1/5 135/2/5 132/3/5 109/4/5
f 111/1/6 134/2/6 135/3/6 112/4/6
f 112/2/1 113/3/1 110/4/1 109/1/1
f 112/1/2 109/4/2 132/3/2 135/2/2
f 109/2/3 110/3/3 133/4/3 132/1/3
f 135/1/4 132/2/4 133/3/4 136/4/4
f 113/1/5 136/2/5 133/3/5 110/4/5
f 112/1/6 135/2/6 136/3/6 113/4/6
f 118/2/1 119/3/1 112/4/1 111/1/1
f 118/1/2 111/4/2 134/3/2 137/2/2
f 111/2/3 112/3/3 135/4/3 134/1/3
f 137/1/4 134/2/4 135/3/4 138/4/4
f 119/1/5 138/2/5 135/3/5 112/4/5
f 118/1/6 137/2/6 138/3/6 119/4/6
f 119/2/1 120/3/1 113/4/1 112/1/1
f 119/1/2 112/4/2 135/3/2 138/2/2
f 112/2/3 113/3/3 136/4/3 135/1/3
f 138/1/4 135/2/4 136/3/4 139/4/4
f 120/1/5 139/2/5 136/3/5 113/4/5
f 119/1/6 138/2/6 139/3/6 120/4/6
