# Blender 4.3.2
# www.blender.org
mtllib Herobrine.mtl
o Herobrine
v 1.004827 8.008843 1.008607
v 1.004827 6.012243 1.008607
v -0.995173 8.008843 1.008608
v -1.004827 6.012243 1.008608
v 1.004827 8.008843 -1.008601
v 1.004827 6.012243 -1.008601
v -0.995172 8.008843 -1.008601
v -1.004828 6.012243 -1.008601
v 1.004827 6.012243 0.509420
v 1.004827 2.996741 0.509420
v -1.004827 6.012243 0.509420
v -1.004827 2.996741 0.509420
v 1.004827 6.012243 -0.509420
v 1.004827 2.996741 -0.509420
v -1.004827 6.012243 -0.509420
v -1.004827 2.996741 -0.509420
v 1.004828 2.996740 0.509420
v 1.004828 0.001559 0.509420
v 0.001689 2.996741 0.509420
v 0.001689 0.001560 0.509420
v 1.004828 2.996740 -0.509420
v 1.004828 0.001559 -0.509420
v 0.001689 2.996741 -0.509420
v 0.001689 0.001560 -0.509420
v -2.002583 2.996743 0.506562
v -2.002583 6.012243 0.506562
v -2.002583 2.996743 -0.509277
v -2.002583 6.012243 -0.509277
v -1.004827 2.996743 0.506561
v -1.004827 6.012243 0.506561
v -1.004827 2.996743 -0.509277
v -1.004827 6.012243 -0.509277
v 1.004827 2.996743 0.506562
v 1.004827 6.012243 0.506562
v 1.004827 2.996743 -0.509277
v 1.004827 6.012243 -0.509277
v 2.002582 2.996743 0.506561
v 2.002582 6.012243 0.506561
v 2.002582 2.996743 -0.509277
v 2.002582 6.012243 -0.509277
v 0.001688 2.996741 0.509420
v 0.001688 0.001560 0.509420
v -1.004822 2.996741 0.509420
v -1.004822 0.001560 0.509420
v 0.001688 2.996741 -0.509420
v 0.001688 0.001560 -0.509420
v -1.004822 2.996741 -0.509420
v -1.004822 0.001560 -0.509420
vn -0.0000 1.0000 -0.0000
vn -1.0000 0.0048 -0.0000
vn -0.0000 -0.0000 -1.0000
vn -0.0000 -1.0000 -0.0000
vn -0.0000 -0.0000 1.0000
vn 1.0000 -0.0000 -0.0000
vn -1.0000 -0.0000 -0.0000
vt 0.250684 0.749089
vt 0.250685 1.000000
vt 0.125343 1.000000
vt 0.125341 0.749097
vt 0.125341 0.500004
vt -0.000000 0.749092
vt 0.000001 0.500000
vt 0.500456 0.499999
vt 0.500454 0.749095
vt 0.375115 0.749092
vt 0.375086 0.500167
vt 0.250685 0.749090
vt 0.375115 0.749094
vt 0.375115 1.000001
vt 0.250682 0.999999
vt 0.250689 0.500001
vt 0.437795 0.374555
vt 0.437785 0.499996
vt 0.312445 0.499996
vt 0.312455 0.374555
vt 0.312448 -0.000001
vt 0.249780 0.374555
vt 0.249773 -0.000001
vt 0.625791 0.000048
vt 0.625798 0.374544
vt 0.500456 0.374555
vt 0.500449 -0.000001
vt 0.437795 0.499999
vt 0.437784 0.374546
vt 0.563124 0.374546
vt 0.563136 0.499999
vt 0.437788 -0.000001
vt 0.125339 0.374546
vt 0.125285 0.499986
vt 0.062670 0.499986
vt 0.062670 0.374546
vt 0.062670 0.000001
vt 0.000000 0.374546
vt 0.000000 0.000001
vt 0.249774 0.000007
vt 0.249774 0.374552
vt 0.188011 0.374546
vt 0.188011 0.000001
vt 0.125346 0.499999
vt 0.125346 0.374543
vt 0.188036 0.374543
vt 0.188036 0.499999
vt 0.125339 0.000001
vt 0.687558 -0.000005
vt 0.687558 0.374545
vt 0.624885 0.374545
vt 0.624885 -0.000005
vt 0.875570 -0.000005
vt 0.875570 0.374545
vt 0.812898 0.374545
vt 0.812898 -0.000005
vt 0.750228 0.374545
vt 0.750228 -0.000004
vt 0.750227 0.374544
vt 0.812899 0.374544
vt 0.812899 0.499998
vt 0.750227 0.499998
vt 0.750228 0.499998
vt 0.687558 0.499998
vt 0.687554 0.000014
vt 0.687554 0.374564
vt 0.624889 0.374567
vt 0.624889 0.000016
vt 0.875569 -0.000000
vt 0.875569 0.374550
vt 0.812899 0.374550
vt 0.812899 -0.000001
vt 0.750227 0.374555
vt 0.750228 0.000005
vt 0.750187 0.374554
vt 0.812901 0.374552
vt 0.812901 0.499995
vt 0.750187 0.499998
vt 0.750228 0.499999
vt 0.687554 0.500007
vt 0.125342 0.374543
vt 0.125342 0.499999
vt 0.062672 0.499999
vt 0.062672 0.374543
vt 0.062672 0.000003
vt -0.000000 0.374543
vt -0.000000 0.000003
vt 0.249775 0.000003
vt 0.249775 0.374543
vt 0.187103 0.374543
vt 0.187103 0.000003
vt 0.125342 0.374544
vt 0.188011 0.374544
vt 0.188011 0.499998
vt 0.125342 0.499998
vt 0.125342 0.000003
s 0
usemtl Material
f 1/1/1 5/2/1 7/3/1 3/4/1
f 4/5/2 3/4/2 7/6/2 8/7/2
f 8/8/3 7/9/3 5/10/3 6/11/3
f 6/12/4 2/13/4 4/14/4 8/15/4
f 2/16/5 1/1/5 3/4/5 4/5/5
f 6/11/6 5/10/6 1/1/6 2/16/6
f 9/17/1 13/18/1 15/19/1 11/20/1
f 12/21/7 11/20/7 15/22/7 16/23/7
f 16/24/3 15/25/3 13/26/3 14/27/3
f 14/28/4 10/29/4 12/30/4 16/31/4
f 10/32/5 9/17/5 11/20/5 12/21/5
f 14/27/6 13/26/6 9/17/6 10/32/6
f 17/33/1 21/34/1 23/35/1 19/36/1
f 20/37/7 19/36/7 23/38/7 24/39/7
f 24/40/3 23/41/3 21/42/3 22/43/3
f 22/44/4 18/45/4 20/46/4 24/47/4
f 18/48/5 17/33/5 19/36/5 20/37/5
f 22/43/6 21/42/6 17/33/6 18/48/6
f 25/49/7 26/50/7 28/51/7 27/52/7
f 27/53/3 28/54/3 32/55/3 31/56/3
f 31/56/6 32/55/6 30/57/6 29/58/6
f 29/58/5 30/57/5 26/50/5 25/49/5
f 27/59/4 31/60/4 29/61/4 25/62/4
f 32/63/1 28/64/1 26/50/1 30/57/1
f 33/65/7 34/66/7 36/67/7 35/68/7
f 35/69/3 36/70/3 40/71/3 39/72/3
f 39/72/6 40/71/6 38/73/6 37/74/6
f 37/74/5 38/73/5 34/66/5 33/65/5
f 35/75/4 39/76/4 37/77/4 33/78/4
f 40/79/1 36/80/1 34/66/1 38/73/1
f 41/81/1 45/82/1 47/83/1 43/84/1
f 44/85/7 43/84/7 47/86/7 48/87/7
f 48/88/3 47/89/3 45/90/3 46/91/3
f 46/92/4 42/93/4 44/94/4 48/95/4
f 42/96/5 41/81/5 43/84/5 44/85/5
f 46/91/6 45/90/6 41/81/6 42/96/6
